<?xml version="1.0" encoding="UTF-8"?>
<svg id="Layer_1" data-name="Layer 1" xmlns="http://www.w3.org/2000/svg" xmlns:xlink="http://www.w3.org/1999/xlink" version="1.1" viewBox="0 0 512 512">
  <defs>
    <style>
      .cls-1 {
        fill: url(#linear-gradient);
      }

      .cls-1, .cls-2 {
        stroke-width: 0px;
      }

      .cls-2 {
        fill: #000;
      }
    </style>
    <linearGradient id="linear-gradient" x1="128.6" y1="116.7" x2="128.6" y2="175.3" gradientTransform="translate(-862.4 -994.5) scale(8.7)" gradientUnits="userSpaceOnUse">
      <stop offset="0" stop-color="#fff"/>
      <stop offset="1" stop-color="#91a3b0"/>
    </linearGradient>
  </defs>
  <rect class="cls-1" width="512" height="512"/>
  <path class="cls-2" d="M178.1,381.3v-.4c34.4-37.8,37.4-100.2,54.7-148.7h10.4c-7.1,17.4-2.5,37.1,13.2,37.1s31.6-36.4,31.6-55.8-7.7-23.5-21-25.2v-1.6h54.5v1.6c-9.3.4-13.9,11.3-18.8,26.8-6.1,19.4-19.4,84.5-31,115.1-14.5,38-32.6,53.8-70.2,53.8s-15.3-.5-23.4-2.8h-.1ZM284.1,151.5v-1.6c12.5-.4,25.5-10.3,29.8-21.9h1.6c-1.3,11.3,7.7,22.3,18.4,22.8v1.6c-10.9,1.3-25.2,10.9-29.8,23.5h-1.6c.9-11.5-6.4-23.5-18.4-24.4Z"/>
</svg>